# xmcd CD database file
#
# Track frame offsets:
#	150
#	15189
#	33049
#	55248
#	82536
#	100600
#	114429
#	131138
#	144748
#	163525
#	180832
#	191342
#	204608
#	219278
#
# Disc length: 3199 seconds
#
# Revision: 0
# Processed by: cddbd v1.5.2PL0 Copyright (c) Steve Scherf et al.
# Submitted via: CDex 1.70beta2
#
DISCID=a20c7d0e
DTITLE=Djangology - Lune d'or
DYEAR=2008
DGENRE=Jazz
TTITLE0=Swing gitan
TTITLE1=La foule
TTITLE2=Oblivion
TTITLE3=Rumba gitane
TTITLE4=A bicyclette
TTITLE5=La gitane
TTITLE6=Lulu swing
TTITLE7=Les copains d'abord
TTITLE8=Sous le ciel de Paris
TTITLE9=Nuages
TTITLE10=Tico Tico
TTITLE11=Minor swing
TTITLE12=Sweet Georgia Brown
TTITLE13=Les yeux noirs
EXTD=YEAR: 2008
EXTT0=
EXTT1=
EXTT2=
EXTT3=
EXTT4=
EXTT5=
EXTT6=
EXTT7=
EXTT8=
EXTT9=
EXTT10=
EXTT11=
EXTT12=
EXTT13=
PLAYORDER=
